<?xml version="1.0" encoding="UTF-8"?>
<svg xmlns="http://www.w3.org/2000/svg" xmlns:xlink="http://www.w3.org/1999/xlink" width="12pt" height="13pt" viewBox="0 0 12 13" version="1.1">
<g id="surface1">
<path style=" stroke:none;fill-rule:nonzero;fill:rgb(0%,0%,0%);fill-opacity:1;" d="M 0.320312 4.875 L 11.679688 4.875 C 11.855469 4.875 12 5.011719 12 5.179688 L 12 11.78125 C 12 12.453125 11.425781 13 10.714844 13 L 1.285156 13 C 0.574219 13 0 12.453125 0 11.78125 L 0 5.179688 C 0 5.011719 0.144531 4.875 0.320312 4.875 Z M 12 3.757812 L 12 2.84375 C 12 2.171875 11.425781 1.625 10.714844 1.625 L 9.429688 1.625 L 9.429688 0.304688 C 9.429688 0.136719 9.285156 0 9.105469 0 L 8.035156 0 C 7.859375 0 7.714844 0.136719 7.714844 0.304688 L 7.714844 1.625 L 4.285156 1.625 L 4.285156 0.304688 C 4.285156 0.136719 4.140625 0 3.964844 0 L 2.894531 0 C 2.714844 0 2.570312 0.136719 2.570312 0.304688 L 2.570312 1.625 L 1.285156 1.625 C 0.574219 1.625 0 2.171875 0 2.84375 L 0 3.757812 C 0 3.925781 0.144531 4.0625 0.320312 4.0625 L 11.679688 4.0625 C 11.855469 4.0625 12 3.925781 12 3.757812 Z M 12 3.757812 "/>
</g>
</svg>
