<?xml version="1.0" encoding="UTF-8"?>
<svg xmlns="http://www.w3.org/2000/svg" xmlns:xlink="http://www.w3.org/1999/xlink" width="12pt" height="13pt" viewBox="0 0 12 13" version="1.1">
<g id="surface1">
<path style=" stroke:none;fill-rule:nonzero;fill:rgb(0%,0%,0%);fill-opacity:1;" d="M 13.476562 5.25 L 10.5 5.25 L 10.5 0.65625 C 10.5 0.292969 10.265625 0 9.976562 0 L 6.824219 0 C 6.535156 0 6.300781 0.292969 6.300781 0.65625 L 6.300781 2.625 L 4.898438 2.625 L 4.898438 0.4375 C 4.898438 0.195312 4.742188 0 4.550781 0 L 4.199219 0 C 4.007812 0 3.851562 0.195312 3.851562 0.4375 L 3.851562 2.625 L 2.449219 2.625 L 2.449219 0.4375 C 2.449219 0.195312 2.292969 0 2.101562 0 L 1.75 0 C 1.554688 0 1.398438 0.195312 1.398438 0.4375 L 1.398438 2.625 L 0.523438 2.625 C 0.234375 2.625 0 2.917969 0 3.28125 L 0 13.125 C 0 13.609375 0.3125 14 0.699219 14 L 13.300781 14 C 13.6875 14 14 13.609375 14 13.125 L 14 5.90625 C 14 5.542969 13.765625 5.25 13.476562 5.25 Z M 2.800781 11.046875 C 2.800781 11.226562 2.683594 11.375 2.539062 11.375 L 1.664062 11.375 C 1.515625 11.375 1.398438 11.226562 1.398438 11.046875 L 1.398438 9.953125 C 1.398438 9.773438 1.515625 9.625 1.664062 9.625 L 2.539062 9.625 C 2.683594 9.625 2.800781 9.773438 2.800781 9.953125 Z M 2.800781 8.421875 C 2.800781 8.601562 2.683594 8.75 2.539062 8.75 L 1.664062 8.75 C 1.515625 8.75 1.398438 8.601562 1.398438 8.421875 L 1.398438 7.328125 C 1.398438 7.148438 1.515625 7 1.664062 7 L 2.539062 7 C 2.683594 7 2.800781 7.148438 2.800781 7.328125 Z M 2.800781 5.796875 C 2.800781 5.976562 2.683594 6.125 2.539062 6.125 L 1.664062 6.125 C 1.515625 6.125 1.398438 5.976562 1.398438 5.796875 L 1.398438 4.703125 C 1.398438 4.523438 1.515625 4.375 1.664062 4.375 L 2.539062 4.375 C 2.683594 4.375 2.800781 4.523438 2.800781 4.703125 Z M 5.601562 11.046875 C 5.601562 11.226562 5.484375 11.375 5.335938 11.375 L 4.460938 11.375 C 4.316406 11.375 4.199219 11.226562 4.199219 11.046875 L 4.199219 9.953125 C 4.199219 9.773438 4.316406 9.625 4.460938 9.625 L 5.335938 9.625 C 5.484375 9.625 5.601562 9.773438 5.601562 9.953125 Z M 5.601562 8.421875 C 5.601562 8.601562 5.484375 8.75 5.335938 8.75 L 4.460938 8.75 C 4.316406 8.75 4.199219 8.601562 4.199219 8.421875 L 4.199219 7.328125 C 4.199219 7.148438 4.316406 7 4.460938 7 L 5.335938 7 C 5.484375 7 5.601562 7.148438 5.601562 7.328125 Z M 5.601562 5.796875 C 5.601562 5.976562 5.484375 6.125 5.335938 6.125 L 4.460938 6.125 C 4.316406 6.125 4.199219 5.976562 4.199219 5.796875 L 4.199219 4.703125 C 4.199219 4.523438 4.316406 4.375 4.460938 4.375 L 5.335938 4.375 C 5.484375 4.375 5.601562 4.523438 5.601562 4.703125 Z M 9.101562 8.421875 C 9.101562 8.601562 8.984375 8.75 8.835938 8.75 L 7.960938 8.75 C 7.816406 8.75 7.699219 8.601562 7.699219 8.421875 L 7.699219 7.328125 C 7.699219 7.148438 7.816406 7 7.960938 7 L 8.835938 7 C 8.984375 7 9.101562 7.148438 9.101562 7.328125 Z M 9.101562 5.796875 C 9.101562 5.976562 8.984375 6.125 8.835938 6.125 L 7.960938 6.125 C 7.816406 6.125 7.699219 5.976562 7.699219 5.796875 L 7.699219 4.703125 C 7.699219 4.523438 7.816406 4.375 7.960938 4.375 L 8.835938 4.375 C 8.984375 4.375 9.101562 4.523438 9.101562 4.703125 Z M 9.101562 3.171875 C 9.101562 3.351562 8.984375 3.5 8.835938 3.5 L 7.960938 3.5 C 7.816406 3.5 7.699219 3.351562 7.699219 3.171875 L 7.699219 2.078125 C 7.699219 1.898438 7.816406 1.75 7.960938 1.75 L 8.835938 1.75 C 8.984375 1.75 9.101562 1.898438 9.101562 2.078125 Z M 12.601562 11.046875 C 12.601562 11.226562 12.484375 11.375 12.335938 11.375 L 11.460938 11.375 C 11.316406 11.375 11.199219 11.226562 11.199219 11.046875 L 11.199219 9.953125 C 11.199219 9.773438 11.316406 9.625 11.460938 9.625 L 12.335938 9.625 C 12.484375 9.625 12.601562 9.773438 12.601562 9.953125 Z M 12.601562 8.421875 C 12.601562 8.601562 12.484375 8.75 12.335938 8.75 L 11.460938 8.75 C 11.316406 8.75 11.199219 8.601562 11.199219 8.421875 L 11.199219 7.328125 C 11.199219 7.148438 11.316406 7 11.460938 7 L 12.335938 7 C 12.484375 7 12.601562 7.148438 12.601562 7.328125 Z M 12.601562 8.421875 "/>
</g>
</svg>
