<?xml version="1.0" encoding="UTF-8"?>
<svg xmlns="http://www.w3.org/2000/svg" xmlns:xlink="http://www.w3.org/1999/xlink" width="14pt" height="14pt" viewBox="0 0 14 14" version="1.1">
<g id="surface1">
<path style=" stroke:none;fill-rule:nonzero;fill:rgb(0%,0%,0%);fill-opacity:1;" d="M 13.734375 5.21875 C 13.839844 5.132812 14 5.210938 14 5.34375 L 14 10.9375 C 14 11.664062 13.414062 12.25 12.6875 12.25 L 1.3125 12.25 C 0.585938 12.25 0 11.664062 0 10.9375 L 0 5.347656 C 0 5.210938 0.15625 5.136719 0.265625 5.21875 C 0.878906 5.695312 1.691406 6.300781 4.480469 8.328125 C 5.054688 8.746094 6.03125 9.632812 7 9.628906 C 7.976562 9.636719 8.96875 8.730469 9.523438 8.328125 C 12.3125 6.300781 13.121094 5.691406 13.734375 5.21875 Z M 7 8.75 C 7.632812 8.761719 8.546875 7.953125 9.007812 7.617188 C 12.636719 4.984375 12.910156 4.753906 13.75 4.097656 C 13.90625 3.976562 14 3.785156 14 3.582031 L 14 3.0625 C 14 2.339844 13.410156 1.75 12.6875 1.75 L 1.3125 1.75 C 0.585938 1.75 0 2.335938 0 3.0625 L 0 3.582031 C 0 3.785156 0.09375 3.972656 0.25 4.097656 C 1.089844 4.753906 1.363281 4.984375 4.992188 7.617188 C 5.453125 7.953125 6.367188 8.761719 7 8.75 Z M 7 8.75 "/>
</g>
</svg>
