<?xml version="1.0" encoding="UTF-8"?>
<svg xmlns="http://www.w3.org/2000/svg" xmlns:xlink="http://www.w3.org/1999/xlink" width="14pt" height="14pt" viewBox="0 0 14 14" version="1.1">
<g id="surface1">
<path style=" stroke:none;fill-rule:nonzero;fill:rgb(0%,0%,0%);fill-opacity:1;" d="M 6.28125 13.71875 C 0.984375 7.957031 0 7.367188 0 5.25 C 0 2.351562 3.132812 0 7 0 C 10.867188 0 14 2.351562 14 5.25 C 14 7.367188 13.015625 7.957031 7.71875 13.71875 C 7.371094 14.09375 6.628906 14.09375 6.28125 13.71875 Z M 7 7.4375 C 8.609375 7.4375 9.917969 6.457031 9.917969 5.25 C 9.917969 4.042969 8.609375 3.0625 7 3.0625 C 5.390625 3.0625 4.082031 4.042969 4.082031 5.25 C 4.082031 6.457031 5.390625 7.4375 7 7.4375 Z M 7 7.4375 "/>
</g>
</svg>
