<?xml version="1.0" encoding="UTF-8"?>
<svg xmlns="http://www.w3.org/2000/svg" xmlns:xlink="http://www.w3.org/1999/xlink" width="14pt" height="14pt" viewBox="0 0 14 14" version="1.1">
<g id="surface1">
<path style=" stroke:none;fill-rule:nonzero;fill:rgb(0%,0%,0%);fill-opacity:1;" d="M 7 7 C 9.210938 7 11 5.433594 11 3.5 C 11 1.566406 9.210938 0 7 0 C 4.789062 0 3 1.566406 3 3.5 C 3 5.433594 4.789062 7 7 7 Z M 9.800781 7.875 L 9.277344 7.875 C 8.585938 8.152344 7.8125 8.3125 7 8.3125 C 6.1875 8.3125 5.417969 8.152344 4.722656 7.875 L 4.199219 7.875 C 1.882812 7.875 0 9.519531 0 11.550781 L 0 12.6875 C 0 13.414062 0.671875 14 1.5 14 L 12.5 14 C 13.328125 14 14 13.414062 14 12.6875 L 14 11.550781 C 14 9.519531 12.117188 7.875 9.800781 7.875 Z M 9.800781 7.875 "/>
</g>
</svg>
